/* XPM */
static char * icon_xpm[] = {
"16 16 68 1",
" 	c None",
".	c #FFD42A",
"+	c #FFD429",
"@	c #204677",
"#	c #1E4877",
"$	c #FFD52B",
"%	c #204676",
"&	c #214678",
"*	c #1E4A76",
"=	c #1B5074",
"-	c #1A5174",
";	c #1D4B75",
">	c #204678",
",	c #1F4876",
"'	c #165872",
")	c #145C71",
"!	c #165971",
"~	c #195373",
"{	c #1B4F74",
"]	c #12606F",
"^	c #0F646E",
"/	c #0F656E",
"(	c #11616F",
"_	c #155A71",
":	c #0D686D",
"<	c #0B6D6C",
"[	c #0D696D",
"}	c #11626F",
"|	c #0E676E",
"1	c #09706B",
"2	c #067569",
"3	c #08716A",
"4	c #0A6D6B",
"5	c #057768",
"6	c #188063",
"7	c #1B8162",
"8	c #047968",
"9	c #10666E",
"0	c #07736A",
"a	c #1E8262",
"b	c #3E8E5A",
"c	c #428F59",
"d	c #268560",
"e	c #067669",
"f	c #155C70",
"g	c #0C6A6C",
"h	c #3D8E5A",
"i	c #659C50",
"j	c #689D4F",
"k	c #479157",
"l	c #0F7D65",
"m	c #0B6D6B",
"n	c #135E70",
"o	c #1C4C74",
"p	c #0A6E6B",
"q	c #178063",
"r	c #599853",
"s	c #258560",
"t	c #125F70",
"u	c #27865F",
"v	c #70A04C",
"w	c #368B5C",
"x	c #10636F",
"y	c #195273",
"z	c #08726A",
"A	c #30895D",
"B	c #3F8F59",
"C	c #10646E",
"                ",
"      .+++      ",
"       ...      ",
"  @@@@#$. @@@@% ",
"  &@@*=  -;@@>  ",
"   @,-'))!~*@   ",
"    {!]^/(_-    ",
"     ]:<<[}     ",
"     |1223[     ",
"     456781     ",
"    90abcde[    ",
"   fg8hijklmn   ",
"  onpqr  is3(-  ",
"  {t1uv   w0xy@ ",
" @=(zA    B2C~@ ",
"                "};
